<svg data-v-fde0c5aa="" xmlns="http://www.w3.org/2000/svg" viewBox="0 0 300 300" class="iconAbove"><!----><defs data-v-fde0c5aa=""><linearGradient data-v-fde0c5aa="" gradientTransform="rotate(25)" id="5c8aa67d-b2ba-4649-8ba5-fccd8c24286a" x1="0%" y1="0%" x2="100%" y2="0%"><stop data-v-fde0c5aa="" offset="0%" stop-color="#3C1143" stop-opacity="1"></stop><stop data-v-fde0c5aa="" offset="100%" stop-color="#C25178" stop-opacity="1"></stop></linearGradient></defs><rect data-v-fde0c5aa="" fill="url(#5c8aa67d-b2ba-4649-8ba5-fccd8c24286a)" x="0" y="0" width="300px" height="300px" class="logo-background-square"></rect><defs data-v-fde0c5aa=""><!----></defs><g data-v-fde0c5aa="" id="9731dcb8-af8a-4445-82dc-609f977fcdff" fill="#ffffff" transform="matrix(4.092554777204382,0,0,4.092554777204382,13.124507701089131,167.83991867002825)"><path d="M2.95 12.88L2.95 8.01L8.82 8.01L8.82 12.88L10.09 12.88L10.09 3.08L8.82 3.08L8.82 7.36L2.95 7.36L2.95 3.08L1.68 3.08L1.68 12.88L2.95 12.88ZM16.63 3.08L13.45 3.08L13.45 12.88L14.73 12.88L14.73 8.55L15.34 8.55L15.34 8.55Q15.74 8.55 16.00 8.62L16.00 8.62L16.00 8.62Q16.25 8.69 16.46 8.86L16.46 8.86L16.46 8.86Q16.67 9.03 16.86 9.30L16.86 9.30L16.86 9.30Q17.04 9.56 17.29 9.95L17.29 9.95L18.40 11.59L18.40 11.59Q18.61 11.91 18.81 12.18L18.81 12.18L18.81 12.18Q19.01 12.45 19.25 12.64L19.25 12.64L19.25 12.64Q19.49 12.82 19.79 12.94L19.79 12.94L19.79 12.94Q20.09 13.05 20.51 13.05L20.51 13.05L20.51 13.05Q20.82 13.05 21.01 13.02L21.01 13.02L21.01 13.02Q21.21 12.99 21.41 12.88L21.41 12.88L21.41 12.36L21.41 12.36Q21.34 12.38 21.27 12.38L21.27 12.38L21.27 12.38Q21.20 12.39 21.13 12.39L21.13 12.39L21.13 12.39Q20.83 12.39 20.61 12.31L20.61 12.31L20.61 12.31Q20.38 12.22 20.19 12.06L20.19 12.06L20.19 12.06Q19.99 11.90 19.81 11.67L19.81 11.67L19.81 11.67Q19.63 11.44 19.43 11.14L19.43 11.14L19.43 11.14Q18.84 10.29 18.52 9.78L18.52 9.78L18.52 9.78Q18.20 9.27 18.01 8.99L18.01 8.99L18.01 8.99Q17.82 8.71 17.70 8.58L17.70 8.58L17.70 8.58Q17.58 8.46 17.42 8.37L17.42 8.37L17.28 8.30L17.28 8.25L17.28 8.25Q17.95 8.20 18.43 7.95L18.43 7.95L18.43 7.95Q18.91 7.70 19.22 7.32L19.22 7.32L19.22 7.32Q19.53 6.94 19.67 6.50L19.67 6.50L19.67 6.50Q19.81 6.06 19.81 5.64L19.81 5.64L19.81 5.64Q19.81 5.26 19.66 4.82L19.66 4.82L19.66 4.82Q19.52 4.37 19.16 3.98L19.16 3.98L19.16 3.98Q18.80 3.60 18.19 3.34L18.19 3.34L18.19 3.34Q17.57 3.08 16.63 3.08L16.63 3.08ZM14.73 7.92L14.73 3.70L16.14 3.70L16.14 3.70Q16.67 3.70 17.10 3.85L17.10 3.85L17.10 3.85Q17.53 4.00 17.84 4.28L17.84 4.28L17.84 4.28Q18.14 4.55 18.30 4.93L18.30 4.93L18.30 4.93Q18.47 5.31 18.47 5.75L18.47 5.75L18.47 5.75Q18.47 6.13 18.32 6.52L18.32 6.52L18.32 6.52Q18.17 6.90 17.88 7.22L17.88 7.22L17.88 7.22Q17.58 7.53 17.16 7.73L17.16 7.73L17.16 7.73Q16.73 7.92 16.17 7.92L16.17 7.92L14.73 7.92ZM30.76 12.88L32.03 12.88L32.03 3.85L35.78 3.85L35.78 3.08L27.01 3.08L27.01 3.85L30.76 3.85L30.76 12.88ZM44.07 3.08L37.74 3.08L37.74 12.88L44.07 12.88L44.07 12.11L39.02 12.11L39.02 8.01L43.36 8.01L43.36 7.36L39.02 7.36L39.02 3.85L44.07 3.85L44.07 3.08ZM54.84 11.45L54.42 11.07L54.42 11.07Q52.99 12.42 51.03 12.42L51.03 12.42L51.03 12.42Q49.94 12.42 49.10 12.04L49.10 12.04L49.10 12.04Q48.26 11.66 47.70 11.03L47.70 11.03L47.70 11.03Q47.14 10.40 46.85 9.58L46.85 9.58L46.85 9.58Q46.56 8.75 46.56 7.85L46.56 7.85L46.56 7.85Q46.56 6.90 46.87 6.11L46.87 6.11L46.87 6.11Q47.17 5.32 47.71 4.75L47.71 4.75L47.71 4.75Q48.26 4.17 49.01 3.85L49.01 3.85L49.01 3.85Q49.76 3.53 50.64 3.53L50.64 3.53L50.64 3.53Q51.24 3.53 51.74 3.67L51.74 3.67L51.74 3.67Q52.23 3.81 52.62 4.03L52.62 4.03L52.62 4.03Q53.00 4.26 53.25 4.54L53.25 4.54L53.25 4.54Q53.49 4.83 53.59 5.12L53.59 5.12L54.63 5.12L54.63 5.12Q54.42 4.65 54.09 4.24L54.09 4.24L54.09 4.24Q53.76 3.84 53.27 3.54L53.27 3.54L53.27 3.54Q52.78 3.25 52.12 3.08L52.12 3.08L52.12 3.08Q51.46 2.91 50.62 2.91L50.62 2.91L50.62 2.91Q49.41 2.91 48.41 3.26L48.41 3.26L48.41 3.26Q47.40 3.61 46.69 4.26L46.69 4.26L46.69 4.26Q45.98 4.91 45.58 5.83L45.58 5.83L45.58 5.83Q45.19 6.75 45.19 7.88L45.19 7.88L45.19 7.88Q45.19 8.86 45.51 9.79L45.51 9.79L45.51 9.79Q45.82 10.72 46.48 11.45L46.48 11.45L46.48 11.45Q47.14 12.17 48.16 12.61L48.16 12.61L48.16 12.61Q49.18 13.05 50.60 13.05L50.60 13.05L50.60 13.05Q51.49 13.05 52.20 12.88L52.20 12.88L52.20 12.88Q52.91 12.71 53.43 12.47L53.43 12.47L53.43 12.47Q53.96 12.22 54.31 11.94L54.31 11.94L54.31 11.94Q54.66 11.66 54.84 11.45L54.84 11.45ZM58.07 12.88L58.07 8.01L63.94 8.01L63.94 12.88L65.21 12.88L65.21 3.08L63.94 3.08L63.94 7.36L58.07 7.36L58.07 3.08L56.80 3.08L56.80 12.88L58.07 12.88Z"></path></g><defs data-v-fde0c5aa=""><!----></defs><g data-v-fde0c5aa="" id="c4efd7df-b4e9-4f4e-bcdb-1b6a8e11416a" stroke="none" fill="#ffffff" transform="matrix(0.1006960537211584,0,0,0.1006960537211584,107.61199864432807,60.30804951886476)"><circle cx="331.5" cy="570.5" r="38.8"></circle><path d="M285.7 985.7c0 12.1 9.8 21.7 21.7 21.7 12.1 0 21.8-9.8 21.8-21.7V803.1h9.6v182.5c0 12.1 9.8 21.7 21.7 21.7 11.9 0 21.7-9.8 21.7-21.7l.1-314.7h9.5v116c0 23.3 30.4 23.3 30.4 0V668.5c0-25.7-15.1-51-45.3-51H290c-27.5 0-44.7 22.4-44.7 50.4v119.2c0 23.2 30.5 23.2 30.5 0V670.9h9.8l.1 314.8z"></path><g><path d="M830.2 186.4H725.5c-6.4 0-11.6 5.2-11.6 11.6v19.2h-41.7c-6.4 0-11.6 5.2-11.6 11.6v192.7c-.1 6.4 5.2 11.6 11.6 11.6H714V451c0 6.4 5.2 11.6 11.6 11.6h104.6c6.4 0 11.6-5.2 11.6-11.6V198c0-6.4-5.2-11.6-11.6-11.6zM151 184.3c-11.8-3.9-24.6 2.6-28.5 14.4l-.7 2.2c-3.9 11.8 2.6 24.6 14.4 28.5l96.7 31.8-206.2-.2C12.1 261 .1 272.9.1 287.6v2.8C.1 305 12 317 26.6 317l133 .1-64.7 35.7c-.1 0-.1.1-.2.1-2.1 1.2-4 2.6-5.7 4.3l-75.5 75.4-.4.4c-10 10.4-9.9 27 .4 37.2.1.1 1.3 1.2 1.3 1.2 5 4.4 11.2 6.6 17.5 6.6 5.8 0 11.7-1.9 16.5-5.8.1 0 .1-.1.2-.1l73.7-60 86.3-24.5v74c0 4.6 1.2 9.1 3.5 13.1 0 .1 0 .1.1.2l38.2 66c7.3 12.6 23.2 17 35.8 9.9 0 0 .1 0 .2-.1l2.3-1.3h.1c11.9-6.8 16.7-21.6 10.9-34.1L273 456.7v-58.5c0-11.3 7.1-21.3 17.8-25.1.1 0 .1 0 .2-.1l13.4-4.6h.1c8.6-2.8 17.8-.3 25.3 3.7 0 0 65.3 35.8 65.4 35.9 10.8 6.6 12.4 21.6 6.6 32.7 0 .1-.1.1-.1.2l-39.9 69.6c-6.4 12-.9 31 10.3 38.6l2.8 1.8c11 7.4 30.3 5.7 39-4.2.1-.1 132.7-155.5 132.7-155.5h92v-146H335.9L151 184.3z"></path></g></g><!----></svg>