<svg xmlns="http://www.w3.org/2000/svg" viewBox="0 0 406.55 135.97"><defs><style>.cls-1{fill:#e4032e;}.cls-2{fill:#f49600;}.cls-3{fill:#164194;}.cls-4{fill:#4a96d2;}.cls-5{opacity:0;}</style></defs><g id="Calque_2" data-name="Calque 2"><g id="Calque_1-2" data-name="Calque 1"><g id="g12"><path id="path2" class="cls-1" d="M214.15,74.13c-12.28,0-19.33,5.28-19.33,14.48S201.87,103,214.15,103s19.3-5.27,19.3-14.38-7-14.48-19.3-14.48m0,22.18c-6.72,0-10.12-2.57-10.12-7.7s3.4-7.78,10.12-7.78,10.13,2.6,10.13,7.78-3.42,7.7-10.13,7.7"/><path id="path4" class="cls-1" d="M236,74.83V81h11.64V100.1c0,1.83,2.77,2.49,5.12,2.49s5.14-.63,5.14-2.49V81h11.62V74.83Z"/><path id="path6" class="cls-1" d="M331.41,95.93c-2.84,0-4.8-.49-5.87-1.36A5.49,5.49,0,0,1,324,90.31V76.82c0-1.79-2.63-2.38-4.9-2.38s-4.93.59-4.93,2.35V89.86c0,5,1.59,8.48,4.78,10.39,3.94,2.29,11.09,2.2,18,2.11h8.58l0-1.24V95.93Z"/><path id="path8" class="cls-1" d="M172.45,93.88c0,4.87,4.09,8.19,11,8.76V73.28h15.6V66.49H158.44v6.79h14Z"/><path id="path10" class="cls-1" d="M310.15,102.37l-.24-1.11C307.62,90,294.79,77.08,292.13,75.17a5.1,5.1,0,0,0-3-.77,5.2,5.2,0,0,0-3,.77c-2.65,1.91-15.49,14.8-17.74,26.09l-.26,1.11h9.09l.16-.8a29.05,29.05,0,0,1,1.75-5.12h20a27.36,27.36,0,0,1,1.73,5.12l.19.8ZM282.37,90.66a50,50,0,0,1,6.8-8.25,51.32,51.32,0,0,1,6.76,8.25Z"/></g><path id="path14" class="cls-2" d="M132.53,83.32c-.07-.19-.14-.39-.22-.58-6.71,7.66-23.2,12.63-38,11.52-8.74-.65-24.92-5.17-33.09-10.17A74.13,74.13,0,0,0,91.34,102c13.58,4,28.07,3.76,36.24-.49,6-4.05,7.34-11.25,5-18.22"/><path id="path16" class="cls-3" d="M113.84,35.11c26.75,15.78,10.83,65.47-10.45,81.43-19.81,14.84-40.87,8-45.44-5.68,4,5.92,11.92,8.08,19,5.72,19.55-7.83,29.61-43.24,30.92-55.54.87-10.59-.52-17.69-4.19-22.18-4.21-4.45-10.66-6.6-20.1-3.64,6.5-5.33,20.39-6,30.31-.11"/><path id="path18" class="cls-1" d="M128.81,100.83a2.8,2.8,0,0,0,.32-.2l.06,0a12.89,12.89,0,0,0,1.6-1.23c.22-.21.46-.43.69-.68,10.41-10.56,12.62-39.91-13-53.82C109.34,39.91,88.12,33,67,43.67,60,47.2,52.75,54.54,48.85,64.52c2.88-4.73,7.84-7.95,17.62-9.33,9.76-1.22,23.21.29,36.37,4.93a72,72,0,0,1,20.72,11.37c4.43,3.8,7.28,7.4,8.75,11.25.08.2.15.39.21.58,2.4,7,1,14.17-4.94,18.22h0c.27-.15.55-.3.85-.48l.12-.07.26-.16"/><path id="path20" class="cls-2" d="M52.16,81.41a34.33,34.33,0,0,0,2.33,3c5.15-12.09,33.3-19.94,41.6-19.85-18.65-6-36.94-3.13-44.29,3.24-2.67,3-3.5,7.44.36,13.66"/><path id="path22" class="cls-4" d="M107.06,108.82c-15-.84-36.82-6.62-52.29-24.14a2,2,0,0,0-.28-.32,36.41,36.41,0,0,1-2.33-3c-3.86-6.22-3-10.68-.36-13.66a13.71,13.71,0,0,0-1.75,1.86c-4,5.12-4.44,13.43-1.74,22.24,5.9,19.12,31.67,30.62,52.6,27.46,13.36-2,21.74-9.53,25.22-12.61a53.92,53.92,0,0,1-19.07,2.12"/><rect class="cls-5" width="406.55" height="135.97"/></g></g></svg>